<?xml version="1.0" standalone="no"?><!-- Generator: Gravit.io --><svg xmlns="http://www.w3.org/2000/svg" xmlns:xlink="http://www.w3.org/1999/xlink" style="isolation:isolate" viewBox="340 173 496 496" width="496" height="496"><path d=" M 588 269 C 535 269 492 312 492 365 C 492 418 535 461 588 461 C 641 461 684 418 684 365 C 684 312 641 269 588 269 Z  M 588 413 C 561.5 413 540 391.5 540 365 C 540 338.5 561.5 317 588 317 C 614.5 317 636 338.5 636 365 C 636 391.5 614.5 413 588 413 Z  M 588 173 C 451 173 340 284 340 421 C 340 558 451 669 588 669 C 725 669 836 558 836 421 C 836 284 725 173 588 173 Z  M 588 621 C 538.3 621 492.9 602.7 457.9 572.6 C 472.8 549.6 498.3 534 527.5 533.1 C 548.3 539.5 568.1 542.7 588 542.7 C 607.9 542.7 627.7 539.6 648.5 533.1 C 677.7 534.1 703.2 549.6 718.1 572.6 C 683.1 602.7 637.7 621 588 621 L 588 621 Z  M 750.7 536.9 C 726.3 505.5 688.6 485 645.6 485 C 635.4 485 619.6 494.6 588 494.6 C 556.5 494.6 540.6 485 530.4 485 C 487.5 485 449.8 505.5 425.3 536.9 C 401.9 504.2 388 464.2 388 421 C 388 310.7 477.7 221 588 221 C 698.3 221 788 310.7 788 421 C 788 464.2 774.1 504.2 750.7 536.9 Z " fill="rgb(255,255,255)"/></svg>